<svg width="43" height="50" viewBox="0 0 43 50" fill="none" xmlns="http://www.w3.org/2000/svg">
<path d="M14.1643 4.78762C14.6654 3.3957 16.1063 2.57682 17.5586 2.85869L23.5649 4.02443C26.0333 4.50351 26.1415 8.10546 25.3133 10.4796C22.2982 19.1228 17.2531 34.1636 14.437 42.5921C13.625 45.0223 10.3374 45.3801 9.01631 43.1847L7.32183 40.3686L4.31206 35.5067C3.83026 34.7284 3.73014 33.7727 4.04018 32.9115L14.1643 4.78762Z" fill="black"/>
<path d="M21.0151 34.9199C25.6275 31.4104 29.4471 34.1047 32.702 33.0097C35.9568 31.9147 38.3273 29.7257 39.2918 26.9243C40.2564 24.1229 39.7362 20.9386 37.8455 18.0719C35.9548 15.2051 32.8486 12.8908 29.2101 11.6379L25.5731 22.2006L21.0151 34.9199Z" fill="#341EFF"/>
</svg>
