<svg width="837" height="400" viewBox="0 0 837 400" fill="none" xmlns="http://www.w3.org/2000/svg">
<g clip-path="url(#clip0_19:98)">
<path d="M653.368 60.0959H448.266V55.8688H355.266V60.0959H149.319C145.639 60.0959 142.11 61.5577 139.508 64.1597C136.906 66.7617 135.444 70.2908 135.444 73.9706V73.9706V354.816C135.444 358.496 136.906 362.025 139.508 364.627C142.11 367.229 145.639 368.69 149.319 368.69H653.368C657.048 368.69 660.577 367.229 663.179 364.627C665.781 362.025 667.243 358.496 667.243 354.816V73.969C667.242 70.2895 665.781 66.7608 663.179 64.1591C660.577 61.5575 657.048 60.0959 653.368 60.0959V60.0959Z" fill="black"/>
<path d="M648.641 84.614H154.046V363.617H648.641V84.614Z" fill="#E6E6E6"/>
<path d="M627.835 99.3685H175.021V340.531H627.835V99.3685Z" fill="white"/>
<path d="M400.921 77.0057C403.722 77.0057 405.994 74.7345 405.994 71.9328C405.994 69.1311 403.722 66.8598 400.921 66.8598C398.119 66.8598 395.848 69.1311 395.848 71.9328C395.848 74.7345 398.119 77.0057 400.921 77.0057Z" fill="#341EFF"/>
<path d="M681.129 358.544H632.86V355.066C632.86 354.883 632.787 354.707 632.658 354.578C632.528 354.448 632.353 354.376 632.17 354.376H615.62C615.437 354.376 615.262 354.448 615.133 354.578C615.003 354.707 614.93 354.883 614.93 355.066V355.066V358.544H604.587V355.066C604.587 354.883 604.515 354.707 604.385 354.578C604.256 354.448 604.081 354.376 603.898 354.376H587.348C587.165 354.376 586.99 354.448 586.86 354.578C586.731 354.707 586.658 354.883 586.658 355.066V355.066V358.544H576.315V355.066C576.315 354.883 576.243 354.707 576.113 354.578C575.984 354.448 575.809 354.376 575.626 354.376H559.076C558.893 354.376 558.718 354.448 558.588 354.578C558.459 354.707 558.386 354.883 558.386 355.066V355.066V358.544H548.043V355.066C548.043 354.883 547.971 354.707 547.841 354.578C547.712 354.448 547.536 354.376 547.353 354.376H530.805C530.622 354.376 530.446 354.448 530.317 354.578C530.188 354.707 530.115 354.883 530.115 355.066V355.066V358.544H519.771V355.066C519.771 354.883 519.698 354.707 519.569 354.578C519.44 354.448 519.264 354.376 519.081 354.376H502.533C502.35 354.376 502.174 354.448 502.045 354.578C501.915 354.707 501.843 354.883 501.843 355.066V355.066V358.544H491.499V355.066C491.499 354.883 491.426 354.707 491.297 354.578C491.168 354.448 490.992 354.376 490.809 354.376H474.264C474.081 354.376 473.905 354.448 473.776 354.578C473.646 354.707 473.574 354.883 473.574 355.066V355.066V358.544H463.227V355.066C463.227 354.883 463.154 354.707 463.025 354.578C462.895 354.448 462.72 354.376 462.537 354.376H332.9C332.717 354.376 332.541 354.448 332.412 354.578C332.283 354.707 332.21 354.883 332.21 355.066V355.066V358.544H321.867V355.066C321.867 354.883 321.794 354.707 321.665 354.578C321.536 354.448 321.36 354.376 321.177 354.376H304.628C304.445 354.376 304.269 354.448 304.14 354.578C304.01 354.707 303.938 354.883 303.938 355.066V355.066V358.544H293.595V355.066C293.595 354.883 293.522 354.707 293.393 354.578C293.263 354.448 293.088 354.376 292.905 354.376H276.356C276.173 354.376 275.998 354.448 275.869 354.578C275.739 354.707 275.666 354.883 275.666 355.066V355.066V358.544H265.323V355.066C265.323 354.883 265.25 354.707 265.121 354.578C264.991 354.448 264.816 354.376 264.633 354.376H248.084C247.901 354.376 247.726 354.448 247.596 354.578C247.467 354.707 247.394 354.883 247.394 355.066V355.066V358.544H237.053V355.066C237.053 354.883 236.98 354.707 236.851 354.578C236.722 354.448 236.546 354.376 236.363 354.376H219.812C219.629 354.376 219.454 354.448 219.324 354.578C219.195 354.707 219.122 354.883 219.122 355.066V355.066V358.544H208.779V355.066C208.779 354.883 208.707 354.707 208.577 354.578C208.448 354.448 208.272 354.376 208.089 354.376H191.54C191.357 354.376 191.181 354.448 191.052 354.578C190.923 354.707 190.85 354.883 190.85 355.066V355.066V358.544H180.507V355.066C180.507 354.883 180.434 354.707 180.305 354.578C180.176 354.448 180 354.376 179.817 354.376H163.265C163.082 354.376 162.906 354.448 162.777 354.578C162.647 354.707 162.575 354.883 162.575 355.066V355.066V358.544H130.858C126.469 358.544 122.26 360.287 119.156 363.391C116.052 366.495 114.309 370.704 114.309 375.093V382.576C114.309 386.965 116.052 391.175 119.156 394.279C122.26 397.382 126.469 399.126 130.858 399.126H681.129C685.518 399.126 689.727 397.382 692.831 394.279C695.934 391.175 697.678 386.966 697.678 382.577V375.094C697.678 370.705 695.935 366.495 692.831 363.392C689.727 360.288 685.518 358.545 681.129 358.545V358.544Z" fill="black"/>
<path d="M501.547 116.283H301.31V326.769H501.547V116.283Z" fill="#E6E6E6"/>
<path d="M836.426 398.423H0V400H836.426V398.423Z" fill="#E6E6E6"/>
<path d="M755.193 343.346C766.526 355.507 767.112 373.382 767.112 373.382C767.112 373.382 749.323 371.539 737.99 359.378C726.657 347.217 726.071 329.342 726.071 329.342C726.071 329.342 743.86 331.185 755.193 343.346Z" fill="#341EFF"/>
<path d="M790.871 362.329C778.71 373.662 760.835 374.247 760.835 374.247C760.835 374.247 762.678 356.459 774.839 345.125C787 333.792 804.875 333.207 804.875 333.207C804.875 333.207 803.033 350.995 790.871 362.329Z" fill="#341EFF"/>
<path d="M787.848 398.423H743.119C742.261 398.423 741.42 398.182 740.692 397.727C739.964 397.271 739.38 396.621 739.005 395.849L729.266 375.83C728.926 375.133 728.769 374.36 728.81 373.586C728.851 372.811 729.088 372.059 729.5 371.401C729.911 370.744 730.483 370.201 731.162 369.826C731.841 369.45 732.605 369.253 733.381 369.254H797.588C798.363 369.253 799.127 369.45 799.806 369.826C800.485 370.201 801.057 370.744 801.468 371.401C801.88 372.059 802.117 372.811 802.158 373.586C802.199 374.36 802.042 375.133 801.702 375.83L791.964 395.849C791.588 396.621 791.004 397.272 790.276 397.727C789.548 398.182 788.707 398.424 787.849 398.423L787.848 398.423Z" fill="#E5E5E5"/>
<path d="M48.0546 343.346C59.3877 355.507 59.9734 373.382 59.9734 373.382C59.9734 373.382 42.1846 371.539 30.8515 359.378C19.5184 347.217 18.9326 329.342 18.9326 329.342C18.9326 329.342 36.7214 331.185 48.0546 343.346Z" fill="#E5E5E5"/>
<path d="M73.615 398.423H28.8855C28.0273 398.423 27.1863 398.182 26.4587 397.727C25.7311 397.271 25.1463 396.621 24.7712 395.849L15.0329 375.83C14.6928 375.133 14.5358 374.36 14.5767 373.586C14.6175 372.811 14.8549 372.059 15.2664 371.401C15.6779 370.744 16.2501 370.201 16.929 369.826C17.6079 369.45 18.3713 369.253 19.1472 369.254H83.3541C84.13 369.253 84.8933 369.45 85.5723 369.826C86.2512 370.201 86.8233 370.744 87.2349 371.401C87.6464 372.059 87.8838 372.811 87.9246 373.586C87.9655 374.36 87.8085 375.133 87.4684 375.83L77.7301 395.849C77.355 396.621 76.7702 397.272 76.0426 397.727C75.315 398.182 74.474 398.424 73.6158 398.423L73.615 398.423Z" fill="#E5E5E5"/>
<path d="M425.588 175.868C440.286 175.868 452.2 163.953 452.2 149.256C452.2 134.559 440.286 122.644 425.588 122.644C410.891 122.644 398.977 134.559 398.977 149.256C398.977 163.953 410.891 175.868 425.588 175.868Z" fill="#A66845"/>
<path d="M364.358 327.203L381.544 219.014C382.458 213.261 384.586 207.77 387.787 202.904C390.989 198.038 395.189 193.91 400.11 190.794C405.031 187.678 410.558 185.646 416.326 184.832C422.093 184.019 427.967 184.443 433.558 186.076V186.076C443.333 188.903 451.702 195.273 457.032 203.941C462.362 212.609 464.269 222.952 462.38 232.951L444.406 329.568L364.358 327.203Z" fill="#341EFF"/>
<path d="M432.936 346.56C434.265 345.682 435.385 344.524 436.218 343.166C437.051 341.809 437.576 340.285 437.757 338.702C437.937 337.12 437.768 335.517 437.262 334.007C436.756 332.496 435.925 331.115 434.828 329.961L452.593 295.559L432.586 297.694L418.783 330.036C416.974 332.01 415.95 334.578 415.905 337.255C415.859 339.933 416.796 342.534 418.538 344.568C420.28 346.602 422.706 347.928 425.358 348.295C428.011 348.662 430.706 348.045 432.935 346.561L432.936 346.56Z" fill="#A66845"/>
<path d="M436.74 323.893C435.758 323.754 434.84 323.319 434.111 322.646L427.314 316.365C426.58 315.683 426.073 314.793 425.861 313.813C425.65 312.834 425.744 311.813 426.132 310.889L439.716 278.69L437.789 215.067C438.352 210.94 440.532 207.205 443.848 204.684C447.165 202.164 451.347 201.064 455.475 201.627C459.602 202.19 463.337 204.37 465.858 207.687C468.378 211.003 469.478 215.186 468.915 219.313V219.313L472.21 259.308C473.212 271.446 469.77 283.535 462.526 293.326L441.341 321.966C440.934 322.516 440.415 322.974 439.818 323.311C439.222 323.648 438.561 323.855 437.88 323.92C437.5 323.956 437.118 323.947 436.74 323.893V323.893Z" fill="#341EFF"/>
<path d="M272.338 134.757C272.628 136.323 273.258 137.807 274.183 139.103C275.109 140.4 276.307 141.477 277.694 142.261C279.081 143.044 280.623 143.513 282.211 143.636C283.799 143.759 285.394 143.533 286.885 142.972L311.639 172.745L317.473 153.489L293.072 128.168C291.959 125.734 289.993 123.791 287.546 122.706C285.099 121.622 282.339 121.471 279.788 122.282C277.237 123.092 275.071 124.809 273.699 127.107C272.326 129.405 271.843 132.127 272.339 134.757H272.338Z" fill="#A66845"/>
<path d="M291.729 147.098C292.24 146.247 292.998 145.572 293.902 145.163L302.337 141.353C303.252 140.943 304.27 140.823 305.254 141.01C306.239 141.197 307.142 141.682 307.842 142.399L332.197 167.463L391.536 190.494C393.311 191.547 394.861 192.939 396.097 194.591C397.334 196.243 398.233 198.123 398.742 200.122C399.252 202.122 399.363 204.202 399.068 206.245C398.774 208.287 398.08 210.252 397.026 212.026C395.972 213.8 394.578 215.349 392.926 216.584C391.273 217.819 389.393 218.717 387.393 219.225C385.393 219.734 383.312 219.843 381.27 219.547C379.228 219.251 377.264 218.556 375.49 217.501V217.501L337.377 204.941C325.808 201.131 316.018 193.248 309.826 182.76L291.713 152.085C291.365 151.495 291.145 150.839 291.068 150.158C290.99 149.478 291.057 148.789 291.263 148.136C291.378 147.773 291.535 147.424 291.731 147.098L291.729 147.098Z" fill="#341EFF"/>
<path opacity="0.1" d="M447.174 241.533L446.091 276.205L426.131 310.892L442.797 272.24L447.174 241.533Z" fill="black"/>
<path d="M407.566 135.917C410.311 139.166 414.956 140.082 419.242 140.458C427.944 141.221 440.599 139.985 449.103 138.02C449.71 143.903 448.055 150.246 451.52 155.086C453.145 149.227 454.089 143.2 454.335 137.125C454.44 134.524 454.399 131.824 453.34 129.432C452.282 127.041 449.973 125.011 447.314 124.989C449.289 123.491 451.603 122.501 454.051 122.109L445.632 117.878L447.794 115.658L432.551 114.725L436.966 111.92C430.321 111.008 423.599 110.797 416.91 111.29C413.804 111.518 410.556 111.956 408.039 113.756C405.523 115.555 404.069 119.132 405.631 121.775C403.675 122.096 401.833 122.911 400.28 124.143C398.728 125.375 397.515 126.983 396.758 128.815C395.636 131.66 395.738 134.819 396.084 137.85C396.659 142.698 397.785 147.464 399.443 152.056" fill="black"/>
<path d="M521.331 69.2507L278.84 125.234C277.65 125.508 276.399 125.297 275.363 124.65C274.327 124.003 273.589 122.971 273.313 121.78L259.426 61.6287C259.153 60.4379 259.363 59.1872 260.01 58.151C260.658 57.1148 261.69 56.3778 262.88 56.1015L505.371 0.118067C506.562 -0.155365 507.812 0.0546999 508.848 0.702175C509.885 1.34965 510.622 2.38166 510.898 3.57185L524.785 63.7235C525.058 64.9144 524.848 66.165 524.201 67.2012C523.553 68.2373 522.521 68.9744 521.331 69.2507Z" fill="white"/>
<path d="M521.331 69.2507L278.84 125.234C277.65 125.508 276.399 125.297 275.363 124.65C274.327 124.003 273.589 122.971 273.313 121.78L259.426 61.6287C259.153 60.4379 259.363 59.1872 260.01 58.151C260.658 57.1148 261.69 56.3778 262.88 56.1015L505.371 0.118067C506.562 -0.155365 507.812 0.0546999 508.848 0.702175C509.885 1.34965 510.622 2.38166 510.898 3.57185L524.785 63.7235C525.058 64.9144 524.848 66.165 524.201 67.2012C523.553 68.2373 522.521 68.9744 521.331 69.2507ZM263.295 57.8981C262.58 58.0638 261.961 58.5061 261.573 59.1279C261.184 59.7497 261.058 60.5002 261.222 61.2148L275.109 121.367C275.275 122.081 275.717 122.7 276.339 123.089C276.961 123.477 277.711 123.603 278.426 123.439L520.917 67.4555C521.631 67.29 522.251 66.8477 522.639 66.2259C523.028 65.6041 523.154 64.8535 522.989 64.1389L509.102 3.98643C508.937 3.2721 508.494 2.65265 507.872 2.26408C507.251 1.8755 506.5 1.74956 505.785 1.9139L263.295 57.8981Z" fill="#E6E6E6"/>
<path d="M347.437 57.7121C347.036 57.8037 346.657 57.9734 346.322 58.2114C345.987 58.4494 345.702 58.7511 345.484 59.0992C345.266 59.4473 345.118 59.835 345.049 60.2403C344.981 60.6455 344.993 61.0603 345.084 61.4609C345.176 61.8615 345.346 62.2401 345.584 62.5751C345.822 62.9101 346.124 63.1949 346.472 63.4132C346.82 63.6315 347.208 63.7791 347.613 63.8476C348.019 63.916 348.433 63.9039 348.834 63.812L348.844 63.8096L492.568 30.6283C493.376 30.4406 494.076 29.9401 494.514 29.2367C494.953 28.5334 495.095 27.6846 494.908 26.8769C494.722 26.0691 494.222 25.3684 493.52 24.9286C492.817 24.4887 491.968 24.3457 491.16 24.5309L347.437 57.7121Z" fill="#E6E6E6"/>
<path d="M351.66 76.0052C351.259 76.0968 350.881 76.2665 350.546 76.5045C350.21 76.7425 349.926 77.0441 349.707 77.3923C349.489 77.7404 349.341 78.1281 349.272 78.5333C349.204 78.9386 349.216 79.3533 349.307 79.7539C349.399 80.1546 349.569 80.5332 349.807 80.8682C350.045 81.2031 350.347 81.4879 350.695 81.7063C351.043 81.9246 351.431 82.0722 351.836 82.1406C352.242 82.209 352.656 82.197 353.057 82.1051L353.068 82.1026L414.912 67.8247C415.721 67.6392 416.423 67.1401 416.864 66.4372C417.304 65.7343 417.448 64.8852 417.263 64.0764C417.077 63.2677 416.579 62.5657 415.876 62.1247C415.173 61.6837 414.324 61.5399 413.515 61.7248L413.505 61.7273L351.66 76.0052Z" fill="#E6E6E6"/>
<path d="M308.146 98.2559C318.514 98.2559 326.919 89.8507 326.919 79.4824C326.919 69.1141 318.514 60.7089 308.146 60.7089C297.777 60.7089 289.372 69.1141 289.372 79.4824C289.372 89.8507 297.777 98.2559 308.146 98.2559Z" fill="#341EFF"/>
<path d="M307.618 90.3124C307.003 90.4552 306.359 90.3943 305.782 90.139L305.746 90.1231L298.192 86.6938C297.842 86.5349 297.526 86.3084 297.263 86.0272C296.999 85.7461 296.794 85.4158 296.659 85.0553C296.524 84.6949 296.461 84.3112 296.474 83.9264C296.487 83.5415 296.575 83.163 296.735 82.8125C296.894 82.462 297.121 82.1464 297.403 81.8836C297.684 81.6209 298.015 81.4162 298.375 81.2813C298.736 81.1465 299.12 81.084 299.505 81.0975C299.889 81.1111 300.268 81.2004 300.618 81.3603L305.513 83.5887L312.38 68.4999C312.701 67.7935 313.29 67.2437 314.017 66.9715C314.744 66.6993 315.549 66.727 316.256 67.0484V67.0484L316.215 67.1469L316.258 67.0479C316.964 67.3703 317.513 67.9595 317.785 68.6864C318.057 69.4132 318.03 70.2183 317.709 70.9249L309.633 88.6748C309.446 89.0838 309.167 89.4441 308.818 89.7278C308.469 90.0115 308.059 90.2111 307.621 90.311L307.618 90.3124Z" fill="white"/>
</g>
<defs>
<clipPath id="clip0_19:98">
<rect width="836.426" height="400" fill="white"/>
</clipPath>
</defs>
</svg>
